<svg width="856" height="883" viewBox="0 0 856 883" fill="none" xmlns="http://www.w3.org/2000/svg">
<g clip-path="url(#clip0_3_15)">
<rect x="438" y="37" width="392" height="392" fill="#EE2537"/>
<rect x="438" y="454" width="392" height="392" fill="#494949"/>
<path d="M413 429.5C413 377.956 402.848 326.917 383.123 279.297C363.398 231.676 334.486 188.408 298.039 151.961C261.592 115.514 218.324 86.6022 170.703 66.8773C123.083 47.1523 72.0438 37 20.5 37L20.5 429.5H413Z" fill="#494949"/>
<path d="M20.5 846C72.0438 846 123.083 835.848 170.703 816.123C218.324 796.398 261.592 767.486 298.039 731.039C334.486 694.592 363.398 651.324 383.123 603.703C402.848 556.083 413 505.044 413 453.5L20.5 453.5L20.5 846Z" fill="#494949"/>
</g>
<defs>
<clipPath id="clip0_3_15">
<rect width="856" height="883" fill="white"/>
</clipPath>
</defs>
</svg>
